:SAMPLES-PER-SECOND 30
:FULLY-SPECIFIED
:DEGREES
17
root  -82.001 40.7361 2.91386 -100.024 87.3965 -106.304
RightUpLeg  -33.7999 14.2316 0.70327
RightLeg  30.3325 8.63498 -0.730042
RightFoot  13.9137 0.322509 -1.40468
RightToes  -4.07455e-010 -1.59028e-015 9.93923e-017
Spine  8.41977 -0.486309 2.16955
Spine1  6.44992 -0.448018 0.845016
HEad  -38.077 3.25094 1.81875
LeftShoulder1  9.93923e-017 0 1.22299e-017
LeftArm  27.2472 56.7196 -77.9572
LeftForeArm  -54.4715 -24.7664 13.3413
LeftHand  0.996839 7.06492 -5.09852
RightShoulder  1.98785e-016 -4.96962e-017 1.55301e-017
RightArm  14.6454 -50.7857 79.0824
RightForeArm  -22.6503 13.7719 2.27781
RightHand  1.1011 -11.1449 -1.74182
LeftUpLeg  -32.6058 -4.97506 2.45179
LeftLeg  23.9414 -9.89128 -0.374317
LeftFoot  10.7222 2.39308 -11.1984
LeftToes  -3.15592e-010 -1.11882e-010 -6.33042e-011
18
root  -79.8802 38.2025 2.94459 -119.861 87.6568 -124.377
RightUpLeg  -35.7021 15.39 -1.252
RightLeg  41.8325 11.404 1.41787
RightFoot  6.53434 -0.0673929 0.672625
RightToes  -4.07455e-010 -1.59028e-015 9.93923e-017
Spine  10.5152 -0.977387 1.85357
Spine1  5.59402 -0.927377 0.738271
HEad  -38.4158 3.17263 0.316822
LeftShoulder1  9.93923e-017 0 1.22299e-017
LeftArm  14.4282 50.0206 -79.2047
LeftForeArm  -39.0494 -19.9586 3.22402
LeftHand  0.914952 6.34876 -3.4205
RightShoulder  1.98785e-016 -4.96962e-017 1.55301e-017
RightArm  0.201837 -47.2785 80.3501
RightForeArm  -9.91192 10.4055 4.65658
RightHand  1.22749 -11.7819 -2.90613
LeftUpLeg  -34.6524 -5.06257 1.39451
LeftLeg  35.8218 -11.4196 -0.774245
LeftFoot  3.94433 0.829427 -5.24236
LeftToes  -3.15592e-010 -1.11882e-010 -6.33042e-011
19
root  -77.8532 35.8096 2.95331 -151.263 86.968 -155.902
RightUpLeg  -37.2876 12.202 -1.99779
RightLeg  54.3441 13.5811 5.02382
RightFoot  -9.69884 2.61445e-005 -0.178543
RightToes  -4.07455e-010 -1.59028e-015 9.93923e-017
Spine  11.733 -1.68108 1.57464
Spine1  2.89316 -1.59807 0.384481
HEad  -37.6662 2.49076 -0.0797604
LeftShoulder1  9.93923e-017 0 1.22299e-017
LeftArm  2.74794 40.8659 -79.6234
LeftForeArm  -25.4646 -11.987 -4.92025
LeftHand  0.86129 6.08986 -0.670951
RightShoulder  1.98785e-016 -4.96962e-017 1.55301e-017
RightArm  -3.44378 -43.2474 81.7254
RightForeArm  -4.8364 9.68745 4.89497
RightHand  1.37696 -12.3122 -4.53528
LeftUpLeg  -38.4334 -6.84839 0.11552
LeftLeg  49.495 -10.8661 0.781971
LeftFoot  -8.82693 0.00413596 0.59938
LeftToes  -3.15592e-010 -1.11882e-010 -6.33042e-011
20
root  -76.0158 34.1374 2.95428 -162.377 85.6331 -168.944
RightUpLeg  -38.3336 8.09898 -1.40899
RightLeg  62.4503 13.4905 6.22286
RightFoot  -24.332 -0.439974 -4.01017
RightToes  -4.07455e-010 -1.59028e-015 9.93923e-017
Spine  12.7933 -2.19206 2.04959
Spine1  -0.810613 -2.01965 0.150712
HEad  -38.4311 1.99082 0.18998
LeftShoulder1  9.93923e-017 0 1.22299e-017
LeftArm  -1.58483 31.2905 -80.1046
LeftForeArm  -22.1635 -9.96659 -6.57519
LeftHand  0.838256 6.12502 2.49127
RightShoulder  1.98785e-016 -4.96962e-017 1.55301e-017
RightArm  5.3718 -38.1946 82.9088
RightForeArm  -11.6897 11.6052 3.98135
RightHand  1.463 -12.4501 -5.78435
LeftUpLeg  -42.1077 -9.1117 -0.373658
LeftLeg  59.5038 -10.0127 3.6924
LeftFoot  -20.3775 0.0517871 2.02995
LeftToes  -3.15592e-010 -1.11882e-010 -6.33042e-011
